<svg xmlns="http://www.w3.org/2000/svg" width="793" height="793" viewBox="0 0 793 793" fill="none"><path d="M636.939 474.997V488.068C634.455 496.741 631.564 505.333 625.375 512.214C570.363 557.169 525.856 627.817 456.348 649.887L433.789 654H133.116C126.601 650.539 122.774 647.2 122 639.463V456.388C123.222 449.751 126.723 445.475 133.076 443.317L212.805 443.073C224.328 446.371 225.509 456.347 224.613 466.975C254.623 452.031 287.688 450.158 318.472 464.125C324.661 466.934 330.402 471.25 336.958 473.816C366.602 485.339 409.235 475.852 441.16 479.191C455.696 480.697 468.319 489.941 475.527 502.238L567.797 438.634C591.211 427.07 619.022 436.313 631.36 458.872L636.858 474.997H636.939ZM224.654 623.827H429.31C453.253 621.872 474.998 612.873 493.118 597.196C530.05 565.231 563.562 526.711 600.739 494.624C615.683 479.557 600.088 457.365 580.909 465.753L481.553 535.343C473.247 552.73 461.112 567.593 440.304 569.507C407.444 572.52 370.145 567.349 336.836 569.425C319.693 565.842 318.838 544.301 335.818 539.415C368.149 537.013 404.512 542.388 436.355 539.415C454.231 537.746 456.389 515.146 439.897 509.649C405.041 506.066 363.508 515.228 330.28 503.663C317.006 499.062 305.849 489.737 292.045 486.602C267.491 481.023 245.339 488.964 224.654 501.709V623.867V623.827ZM194.481 473.002H152.255V623.827H194.481V473.002Z" fill="#F7921E"></path><path d="M389.368 139.429C493.488 130.838 555.26 253.118 486.118 331.707C476.712 342.416 462.216 349.949 459.406 365.301C454.56 391.809 470.889 437.211 435.382 448.857C425.12 452.237 384.116 451.952 372.103 450.689C328.819 446.17 343.355 395.962 340.301 367.866C338.428 350.56 322.792 342.742 312.612 331.178C250.311 260.407 295.876 147.125 389.368 139.389V139.429ZM429.762 360.374C430.74 356.342 431.717 352.189 433.305 348.321C442.548 326.088 462.379 317.374 473.821 297.34C510.02 233.777 455.171 157.55 383.464 170.784C321 182.307 293.148 257.272 332.239 307.56C340.424 318.107 352.11 325.273 359.602 336.512C364.407 343.719 367.665 351.904 369.416 360.374H384.482V281.418C378.13 272.867 356.549 257.801 354.553 248.028C352.192 236.464 362.819 227.058 374.139 230.438C381.184 232.555 397.553 253.118 399.915 252.711C408.262 246.522 418.279 229.908 429.192 229.583C438.924 229.297 446.539 238.5 444.543 248.069C442.548 257.638 421.008 272.949 414.615 281.459V360.414H429.681L429.762 360.374ZM428.785 390.547H370.475V416.2C370.475 417.055 373.447 420.964 375.035 420.72C390.142 419.58 407.529 422.308 422.351 420.801C424.794 420.557 428.826 419.091 428.826 416.2V390.547H428.785Z" fill="#F7921E"></path><path d="M245.498 305.278C260.32 302.591 269.93 319.448 259.872 330.687C258.08 332.723 230.513 348.726 227.5 349.622C212.352 354.101 201.073 336.347 211.578 324.661C213.492 322.502 242.729 305.807 245.498 305.319V305.278Z" fill="#F7921E"></path><path d="M547.153 305.281C550.899 304.589 553.22 305.037 556.722 306.299C560.224 307.561 585.836 322.587 587.669 324.623C597.93 336.106 587.099 354.144 571.747 349.584C568.693 348.688 541.452 332.807 539.416 330.649C531.476 322.261 535.751 307.317 547.193 305.24L547.153 305.281Z" fill="#F7921E"></path><path d="M219.321 159.502C222.986 158.769 225.51 159.299 228.89 160.561C232.27 161.823 258.004 176.849 259.837 178.885C270.342 190.612 259.063 208.366 243.915 203.846C241.106 203.032 213.213 186.785 211.544 184.911C203.888 176.36 207.879 161.823 219.321 159.502Z" fill="#F7921E"></path><path d="M573.292 159.503C587.625 156.856 597.235 173.144 588.114 184.383C586.078 186.867 558.022 203.114 554.479 204.05C540.065 207.837 529.111 190.857 538.924 179.456C541.164 176.85 569.953 160.155 573.292 159.503Z" fill="#F7921E"></path><path d="M557.21 239.925C561.974 238.947 590.192 239.029 594.712 240.169C609.697 243.997 609.046 266.555 593.939 269.65C589.174 270.627 560.956 270.546 556.436 269.406C541.451 265.578 542.143 243.019 557.21 239.925Z" fill="#F7921E"></path><path d="M205.272 239.925C210.036 238.947 238.255 239.029 242.775 240.169C257.759 243.997 257.108 266.555 242.001 269.65C237.237 270.627 209.018 270.546 204.498 269.406C189.514 265.578 190.206 243.019 205.272 239.925Z" fill="#F7921E"></path></svg>