<svg
  xmlns="http://www.w3.org/2000/svg"
  width="793"
  height="793"
  viewBox="0 0 793 793"
  fill="none"
>
  <path
    d="M215.256 599.604C108.544 501.245 150.544 357.883 139 229.211L147.165 209.501L396.018 97.0645L637.41 204.339C640.93 206.357 645.998 209.36 648.062 212.692C659.512 231.135 650.878 281.064 650.878 304.904C650.972 382.708 660.874 465.393 624.176 537.66C581.286 622.129 481.847 667.601 395.971 696.086C331.916 674.874 265.28 645.686 215.256 599.604ZM609.488 237L396.065 142.911L185.316 238.221L182.032 247.605C188.742 337.752 163.59 448.03 211.267 529.166C248.902 593.175 329.805 625.555 396.018 651.458C484.428 618.75 578.423 574.263 601.933 474.356C619.437 399.978 605.406 313.538 609.442 237.094L609.488 237Z"
    fill="#F7921E"
  ></path>
  <path
    d="M480.295 331.339C500.239 332.653 520.98 348.046 524.124 368.271C527.972 393.236 527.503 481.552 524.406 507.503C521.732 529.746 503.149 544.715 481.562 547.015C441.487 551.332 354.249 550.722 313.517 547.156C289.96 545.091 270.532 532.28 267.717 507.409C264.947 483.007 264.009 387.417 268.42 365.596C272.503 345.652 292.916 333.968 311.639 331.199C295.826 192.202 496.297 190.605 480.248 331.292L480.295 331.339ZM353.264 331.668H438.811C450.825 247.152 341.298 247.152 353.264 331.668ZM483.158 376.014H308.918V502.716H483.158V376.014Z"
    fill="#F7921E"
  ></path>
  <path
    d="M412.723 454.659C392.827 474.415 361.714 443.303 379.452 424.532C400.522 402.242 430.743 436.78 412.723 454.659Z"
    fill="#F7921E"
  ></path>
</svg>
