<svg
  xmlns="http://www.w3.org/2000/svg"
  width="793"
  height="793"
  viewBox="0 0 793 793"
  fill="none"
>
  <path
    d="M176.336 180L384.504 180.434L390.104 183.431L496.294 289.704L498.769 294.742L499.984 404.099C575.654 415.608 622.845 495.737 594.148 567.57C594.8 570.827 634.74 607.569 640.601 614.388C662.394 639.707 656.36 665.896 631.484 685.787C614.379 699.467 592.064 697.209 575.654 683.659C568.317 677.578 530.113 635.668 526.727 635.017C501.2 644.658 475.412 646.005 449.103 638.578C438.38 635.538 428.873 630.109 418.54 626.201H178.202C157.017 623.812 140.693 607.482 139 586.028V218.957C141.258 198.805 156.279 182.953 176.336 180.087V180ZM362.146 214.049H179.244C176.77 214.049 172.342 220.216 173.297 223.126V582.77C172.342 585.68 176.813 591.847 179.244 591.847H383.636C333.015 520.101 376.863 417.389 463.343 404.924L465.166 403.491V317.109H399.178C384.026 317.109 362.146 295.263 362.146 280.063V214.049ZM440.464 282.755L396.486 238.761V276.849C396.486 278.108 401.131 282.755 402.39 282.755H440.464ZM473.502 437.584C412.549 443.534 377.818 510.85 407.036 564.617C438.684 622.943 523.862 623.638 556.813 565.963C591.543 505.074 542.92 430.809 473.545 437.584H473.502ZM576.175 598.318L558.549 616.906L599.749 658.382C606 665.765 619.502 651.781 619.676 646.005C619.806 642.226 617.548 640.142 615.334 637.449C604.177 623.899 587.81 611.782 576.132 598.318H576.175Z"
    fill="#F7921E"
  ></path>
  <path
    d="M241.976 308.508H297.241C303.536 308.508 310.569 318.845 310.743 325.142C310.916 331.917 304.317 342.862 297.241 342.862H241.976V394.37H365.878C372.173 394.37 379.206 404.706 379.38 411.003C379.553 417.778 372.954 428.723 365.878 428.723H241.976V480.231H331.538C337.833 480.231 344.866 490.567 345.039 496.865C345.213 503.64 338.614 514.584 331.538 514.584H241.976V544.116C241.976 546.809 236.853 553.237 234.422 554.8C223.698 561.749 209.763 555.321 207.766 542.944L208.156 278.411C211.89 264.079 230.905 260.865 239.284 273.156C239.805 273.938 242.019 278.585 242.019 279.019V308.552L241.976 308.508Z"
    fill="#F7921E"
  ></path>
  <path
    d="M523.907 478.279C536.975 477.236 546.613 491.785 540.448 503.468C524.124 519.928 508.495 537.517 491.434 553.195C481.796 562.055 472.592 573.564 458.743 564.357C455.314 562.099 425.662 532.175 424.143 529.222C418.282 517.93 426.444 504.467 439.034 504.206C451.363 503.946 460.219 519.233 468.902 526.312C484.618 514.63 497.382 495.781 512.359 483.924C515.659 481.319 519.609 478.583 523.951 478.279H523.907Z"
    fill="#F7921E"
  ></path>
</svg>
